<svg fill="#000000" xmlns="http://www.w3.org/2000/svg"  viewBox="0 0 50 50" width="50px" height="50px"><path d="M 6 5 C 3.792969 5 2 6.792969 2 9 L 2 41 C 2 43.207031 3.792969 45 6 45 L 44 45 C 46.207031 45 48 43.207031 48 41 L 48 9 C 48 6.792969 46.207031 5 44 5 Z M 7 9 L 43 9 C 43.554688 9 44 9.449219 44 10 L 44 40 C 44 40.554688 43.554688 41 43 41 L 7 41 C 6.449219 41 6 40.554688 6 40 L 6 10 C 6 9.449219 6.449219 9 7 9 Z M 8 11 L 8 39 L 29 39 L 29 37 L 38 37 L 38 39 L 42 39 L 42 11 Z M 25 18 C 26.65625 18 28 19.34375 28 21 C 28 22.65625 26.65625 24 25 24 C 23.34375 24 22 22.65625 22 21 C 22 19.34375 23.34375 18 25 18 Z M 17 22 C 18.105469 22 19 22.894531 19 24 C 19 25.105469 18.105469 26 17 26 C 15.894531 26 15 25.105469 15 24 C 15 22.894531 15.894531 22 17 22 Z M 33 22 C 34.105469 22 35 22.894531 35 24 C 35 25.105469 34.105469 26 33 26 C 31.894531 26 31 25.105469 31 24 C 31 22.894531 31.894531 22 33 22 Z M 25 27 C 27.125 27 28.941406 27.890625 30 28.5625 L 30 32 L 20 32 L 20 28.5625 C 21.058594 27.890625 22.875 27 25 27 Z M 17 28.65625 C 17.347656 28.65625 17.679688 28.71875 18 28.78125 L 18 32 L 13 32 L 13 30.1875 C 13 30.1875 14.742188 28.65625 17 28.65625 Z M 33 28.65625 C 35.257813 28.65625 37 30.1875 37 30.1875 L 37 32 L 32 32 L 32 28.78125 C 32.320313 28.71875 32.652344 28.65625 33 28.65625 Z"/></svg>