<svg xmlns="http://www.w3.org/2000/svg" width="738.371" height="532.3" viewBox="0 0 195.361 140.838">
    <g transform="translate(-121.662 -74.986)">
        <path fill="#fff" stroke="#2b1100" stroke-width="1.323" d="M305.756 159.827h4.811v1.069h-4.811z"/>
        <rect width="194.05" height="139.527" x="122.317" y="75.641" ry="0" fill="#fff"/>
        <path d="M170.12 104.246a20 20 0 01-19.98 20 20 20 0 01-20.02-19.96 20 20 0 0119.938-20.04 20 20 0 0120.061 19.918l-20 .082z"
              opacity=".7" fill="#3df2c6"/>
        <path d="M265.666 130.467a9.68 9.68 0 01-9.67 9.68 9.68 9.68 0 01-9.688-9.66 9.68 9.68 0 019.65-9.7 9.68 9.68 0 019.708 9.64l-9.68.04z"
              opacity=".7" fill="#eb35c6"/>
        <path d="M166.142 199.662c-11.796-2.155-21.636-4.022-21.866-4.147-.23-.126 6.775-5.048 15.567-10.938 8.792-5.89 16.083-10.546 16.202-10.346.572.958 11.893 29.212 11.73 29.276-.102.041-9.837-1.69-21.633-3.845z"
              opacity=".7" fill="#2469ff"/>
        <path d="M279.236 105.384c-15.709-1.369-28.813-2.554-29.12-2.633-.306-.08 9.023-3.205 20.731-6.945 11.71-3.74 21.419-6.696 21.577-6.57.762.61 15.838 18.548 15.622 18.59-.136.025-13.1-1.074-28.81-2.442z"
              opacity=".7" fill="#40f2ed"/>
        <path d="M259.466 205.124l-12.041-3.565-7.646-9.962-.33-12.554 7.11-10.35 11.838-4.194 12.042 3.565 7.646 9.962.33 12.554-7.111 10.35z"
              opacity=".7" fill="#3aff00"/>
        <path d="M216.217 93.18a5 5 0 01-4.995 5 5 5 0 01-5.005-4.99 5 5 0 014.985-5.01 5 5 0 015.015 4.98l-5 .02z"
              opacity=".7" fill="#2469ff"/>
        <path d="M305.756 159.848a5 5 0 01-4.994 5 5 5 0 01-5.006-4.99 5 5 0 014.985-5.01 5 5 0 015.015 4.98l-5 .02z"
              opacity=".7" fill="#3df2c6"/>
        <path d="M216.217 176.034a5 5 0 01-4.995 5 5 5 0 01-5.005-4.99 5 5 0 014.985-5.01 5 5 0 015.015 4.98l-5 .02z"
              opacity=".7" fill="#ff4324"/>
        <path d="M192.84 140.901c-8.898-.936-16.32-1.746-16.493-1.8-.174-.055 5.11-2.192 11.742-4.749 6.631-2.557 12.13-4.578 12.22-4.492.432.416 8.971 12.682 8.849 12.71-.078.018-7.42-.733-16.318-1.669z"
              opacity=".7" fill="#e7ff24"/>
        <path d="M170.12 104.246a20 20 0 01-19.98 20 20 20 0 01-20.02-19.96 20 20 0 0119.938-20.04 20 20 0 0120.061 19.918l-20 .082z"
              opacity=".7" fill="#3df2c6"/>
    </g>
</svg>
